<?xml version="1.0" standalone="no"?>
<!DOCTYPE svg PUBLIC "-//W3C//DTD SVG 20010904//EN"
 "http://www.w3.org/TR/2001/REC-SVG-20010904/DTD/svg10.dtd">
<svg version="1.0" xmlns="http://www.w3.org/2000/svg"
 width="150.000000pt" height="150.000000pt" viewBox="0 0 150.000000 150.000000"
 preserveAspectRatio="xMidYMid meet">

<g transform="translate(0.000000,150.000000) scale(0.100000,-0.100000)"
fill="#000000" stroke="none">
<path d="M63 1289 c-60 -38 -80 -132 -40 -192 8 -12 167 -137 353 -277 299
-225 342 -255 375 -255 32 0 76 30 372 252 185 139 344 264 353 277 27 43 29
99 4 143 -43 77 0 73 -732 73 -638 0 -654 -1 -685 -21z"/>
<path d="M2 648 c3 -375 3 -371 82 -426 l39 -27 615 -3 c603 -2 616 -2 657 18
25 12 55 38 71 62 l29 41 3 335 c2 272 1 332 -10 326 -7 -4 -155 -115 -329
-245 -174 -131 -328 -243 -343 -249 -41 -15 -103 -12 -144 8 -20 10 -174 122
-342 248 -168 127 -311 234 -318 238 -11 6 -12 -54 -10 -326z"/>
</g>
</svg>
