<?xml version="1.0" standalone="no"?>
<!DOCTYPE svg PUBLIC "-//W3C//DTD SVG 20010904//EN"
 "http://www.w3.org/TR/2001/REC-SVG-20010904/DTD/svg10.dtd">
<svg version="1.0" xmlns="http://www.w3.org/2000/svg"
 width="169.000000pt" height="150.000000pt" viewBox="0 0 169.000000 150.000000"
 preserveAspectRatio="xMidYMid meet">

<g transform="translate(0.000000,150.000000) scale(0.100000,-0.100000)"
fill="#000000" stroke="none">
<path d="M808 1492 c-9 -4 -78 -61 -154 -127 -76 -66 -248 -216 -383 -333
-135 -117 -252 -225 -259 -239 -19 -35 -7 -87 25 -113 20 -15 40 -20 89 -20
l64 0 0 -285 c0 -386 -7 -375 230 -375 229 0 240 11 240 253 0 150 1 157 24
184 l24 28 135 0 c129 0 136 -1 161 -24 26 -24 26 -27 26 -165 1 -164 9 -209
45 -245 25 -25 29 -26 179 -29 170 -4 199 3 233 55 16 24 18 60 21 313 l2 285
64 5 c82 6 116 34 116 93 0 32 -6 46 -34 72 -88 83 -744 653 -763 663 -24 13
-59 14 -85 4z"/>
</g>
</svg>
