<?xml version="1.0" standalone="no"?>
<!DOCTYPE svg PUBLIC "-//W3C//DTD SVG 20010904//EN"
 "http://www.w3.org/TR/2001/REC-SVG-20010904/DTD/svg10.dtd">
<svg version="1.0" xmlns="http://www.w3.org/2000/svg"
 width="200.000000pt" height="33.000000pt" viewBox="0 0 200.000000 33.000000"
 preserveAspectRatio="xMidYMid meet">

<g transform="translate(0.000000,33.000000) scale(0.100000,-0.100000)"
fill="#000000" stroke="none">
<path d="M91 257 c8 -7 33 -54 54 -105 21 -51 41 -89 45 -85 11 13 30 74 21
69 -4 -3 -20 26 -35 64 -27 69 -28 70 -64 70 -31 -1 -34 -3 -21 -13z"/>
<path d="M259 258 c-1 -7 0 -51 1 -97 1 -61 -2 -86 -12 -92 -8 -5 6 -8 37 -8
28 0 44 3 38 6 -18 7 -18 189 0 196 6 3 -5 6 -25 6 -24 1 -38 -4 -39 -11z"/>
<path d="M422 240 c-6 -16 -8 -30 -3 -30 4 0 18 -30 31 -66 19 -55 21 -67 9
-75 -9 -6 2 -9 34 -9 42 0 46 2 37 18 -6 9 -25 55 -43 101 -18 47 -38 86 -44
88 -6 2 -16 -10 -21 -27z"/>
<path d="M558 263 c17 -7 17 -189 0 -196 -7 -3 10 -5 37 -5 28 0 44 2 38 5 -9
3 -13 33 -13 98 0 65 4 95 13 98 6 3 -10 5 -38 5 -27 0 -44 -2 -37 -5z"/>
<path d="M674 254 c24 -24 23 -169 -1 -183 -14 -8 -7 -10 32 -11 30 0 45 4 37
8 -9 6 -12 33 -10 97 3 85 4 89 28 96 17 5 4 7 -38 8 -58 1 -62 0 -48 -15z"/>
<path d="M903 259 c14 -8 17 -24 17 -92 0 -51 -5 -88 -12 -95 -9 -9 6 -12 70
-12 l82 0 -1 38 -1 37 -14 -33 c-12 -27 -19 -32 -49 -32 -35 0 -35 0 -35 45 0
46 13 58 38 33 9 -9 12 -6 12 17 0 23 -3 26 -12 17 -25 -25 -39 -14 -36 31 3
35 7 43 26 45 28 4 49 -12 55 -41 2 -13 5 -6 6 16 l1 37 -82 0 c-61 -1 -78 -3
-65 -11z"/>
<path d="M1151 239 c-6 -18 -9 -35 -6 -37 3 -3 5 1 6 9 0 8 13 -20 28 -61 20
-53 25 -77 17 -82 -6 -4 8 -8 30 -8 l42 0 -42 102 c-23 56 -47 103 -53 105 -6
2 -16 -11 -22 -28z"/>
<path d="M1310 250 c-34 -34 -25 -55 43 -105 38 -28 46 -52 25 -73 -9 -9 -7
-12 10 -12 27 0 56 42 47 69 -3 12 -26 35 -51 51 -32 23 -44 38 -44 55 0 39
45 34 70 -7 l20 -33 0 35 c0 35 0 35 -50 38 -39 2 -54 -2 -70 -18z"/>
<path d="M1468 263 c8 -3 12 -33 12 -98 0 -65 -4 -95 -12 -98 -7 -3 26 -6 74
-6 l87 -1 -1 37 -1 37 -16 -32 c-12 -27 -20 -32 -48 -32 -32 0 -33 1 -33 45 0
48 19 62 39 28 8 -14 10 -10 10 22 0 32 -2 36 -10 23 -20 -35 -39 -21 -39 27
0 43 1 45 29 45 30 0 46 -13 54 -45 3 -12 5 -4 6 18 l1 37 -82 -1 c-46 0 -77
-3 -70 -6z"/>
<path d="M1855 261 c-3 -5 -1 -12 5 -16 5 -3 10 1 10 9 0 18 -6 21 -15 7z"/>
<path d="M804 238 c10 -14 16 -44 16 -76 0 -43 -5 -58 -25 -77 -26 -27 -20
-31 20 -13 31 14 55 55 55 93 0 33 -24 81 -45 89 -30 11 -36 6 -21 -16z"/>
<path d="M1790 210 c0 -6 5 -8 11 -4 6 3 16 0 21 -7 8 -12 9 -11 5 1 -4 18
-37 27 -37 10z"/>
<path d="M1853 214 c20 -6 22 -34 5 -54 -11 -12 -10 -12 5 0 23 17 18 54 -8
57 -16 1 -16 1 -2 -3z"/>
<path d="M1720 165 c0 -14 2 -25 4 -25 2 0 6 11 8 25 3 14 1 25 -3 25 -5 0 -9
-11 -9 -25z"/>
<path d="M1808 148 c5 -5 16 -8 23 -6 8 3 3 7 -10 11 -17 4 -21 3 -13 -5z"/>
<path d="M1763 136 c0 -7 7 -13 16 -12 10 1 16 -7 15 -20 0 -11 6 -26 13 -33
15 -14 17 -2 3 33 -10 29 -47 53 -47 32z"/>
<path d="M1291 105 c-1 -36 1 -40 26 -42 18 -1 22 2 12 7 -7 5 -19 24 -26 42
l-11 33 -1 -40z"/>
<path d="M1889 123 c-13 -16 -12 -17 4 -4 16 13 21 21 13 21 -2 0 -10 -8 -17
-17z"/>
<path d="M1911 117 c-13 -21 -12 -21 5 -5 10 10 16 20 13 22 -3 3 -11 -5 -18
-17z"/>
<path d="M358 90 l-17 -30 32 1 c19 1 24 3 14 6 -14 4 -17 11 -13 29 8 32 5
30 -16 -6z"/>
<path d="M1756 100 c7 -8 14 -24 17 -35 4 -19 5 -19 6 1 0 12 -7 28 -16 35
-16 12 -17 12 -7 -1z"/>
<path d="M1840 103 c0 -6 -3 -18 -6 -27 -3 -9 -1 -16 6 -16 6 0 9 4 6 9 -4 5
-2 11 4 13 6 2 6 8 0 18 -6 9 -10 10 -10 3z"/>
<path d="M90 75 c-11 -13 -8 -15 16 -15 16 0 25 4 19 8 -5 4 -13 11 -16 15 -3
4 -12 1 -19 -8z"/>
<path d="M1080 75 c-11 -13 -8 -15 20 -15 19 0 31 1 29 3 -2 1 -11 8 -20 15
-13 10 -19 9 -29 -3z"/>
</g>
</svg>
