<?xml version="1.0" standalone="no"?>
<!DOCTYPE svg PUBLIC "-//W3C//DTD SVG 20010904//EN"
 "http://www.w3.org/TR/2001/REC-SVG-20010904/DTD/svg10.dtd">
<svg version="1.0" xmlns="http://www.w3.org/2000/svg"
 width="150.000000pt" height="150.000000pt" viewBox="0 0 150.000000 150.000000"
 preserveAspectRatio="xMidYMid meet">

<g transform="translate(0.000000,150.000000) scale(0.100000,-0.100000)"
fill="#000000" stroke="none">
<path d="M205 1458 c-204 -57 -215 -73 -197 -263 12 -112 40 -243 75 -340 48
-133 144 -294 243 -404 234 -263 520 -408 869 -443 192 -19 206 -8 265 207 44
162 45 195 7 237 -25 26 -332 158 -369 158 -39 -1 -70 -25 -134 -101 -33 -41
-67 -75 -75 -77 -42 -8 -234 137 -326 246 -59 71 -133 187 -133 209 0 6 34 39
75 73 76 62 105 101 105 141 0 24 -111 297 -141 346 -20 31 -64 54 -103 52
-12 -1 -84 -19 -161 -41z"/>
</g>
</svg>
